<svg fill="none" height="560" viewBox="0 0 400 560" width="400" xmlns="http://www.w3.org/2000/svg" xmlns:xlink="http://www.w3.org/1999/xlink"><filter id="a" color-interpolation-filters="sRGB" filterUnits="userSpaceOnUse" height="48" width="48" x="356" y="516"><feFlood flood-opacity="0" result="BackgroundImageFix"/><feGaussianBlur in="BackgroundImageFix" stdDeviation="2"/><feComposite in2="SourceAlpha" operator="in" result="effect1_backgroundBlur_1002_10990"/><feBlend in="SourceGraphic" in2="effect1_backgroundBlur_1002_10990" mode="normal" result="shape"/></filter><filter id="b" color-interpolation-filters="sRGB" filterUnits="userSpaceOnUse" height="48" width="48" x="116" y="516.001"><feFlood flood-opacity="0" result="BackgroundImageFix"/><feGaussianBlur in="BackgroundImageFix" stdDeviation="2"/><feComposite in2="SourceAlpha" operator="in" result="effect1_backgroundBlur_1002_10990"/><feBlend in="SourceGraphic" in2="effect1_backgroundBlur_1002_10990" mode="normal" result="shape"/></filter><filter id="c" color-interpolation-filters="sRGB" filterUnits="userSpaceOnUse" height="48" width="48" x="76" y="516.001"><feFlood flood-opacity="0" result="BackgroundImageFix"/><feGaussianBlur in="BackgroundImageFix" stdDeviation="2"/><feComposite in2="SourceAlpha" operator="in" result="effect1_backgroundBlur_1002_10990"/><feBlend in="SourceGraphic" in2="effect1_backgroundBlur_1002_10990" mode="normal" result="shape"/></filter><filter id="d" color-interpolation-filters="sRGB" filterUnits="userSpaceOnUse" height="48" width="48" x="76" y="196.001"><feFlood flood-opacity="0" result="BackgroundImageFix"/><feGaussianBlur in="BackgroundImageFix" stdDeviation="2"/><feComposite in2="SourceAlpha" operator="in" result="effect1_backgroundBlur_1002_10990"/><feBlend in="SourceGraphic" in2="effect1_backgroundBlur_1002_10990" mode="normal" result="shape"/></filter><filter id="e" color-interpolation-filters="sRGB" filterUnits="userSpaceOnUse" height="48" width="48" x="316" y="476.001"><feFlood flood-opacity="0" result="BackgroundImageFix"/><feGaussianBlur in="BackgroundImageFix" stdDeviation="2"/><feComposite in2="SourceAlpha" operator="in" result="effect1_backgroundBlur_1002_10990"/><feBlend in="SourceGraphic" in2="effect1_backgroundBlur_1002_10990" mode="normal" result="shape"/></filter><filter id="f" color-interpolation-filters="sRGB" filterUnits="userSpaceOnUse" height="48" width="48" x="116" y="316.001"><feFlood flood-opacity="0" result="BackgroundImageFix"/><feGaussianBlur in="BackgroundImageFix" stdDeviation="2"/><feComposite in2="SourceAlpha" operator="in" result="effect1_backgroundBlur_1002_10990"/><feBlend in="SourceGraphic" in2="effect1_backgroundBlur_1002_10990" mode="normal" result="shape"/></filter><filter id="g" color-interpolation-filters="sRGB" filterUnits="userSpaceOnUse" height="48" width="48" x="316" y="276.001"><feFlood flood-opacity="0" result="BackgroundImageFix"/><feGaussianBlur in="BackgroundImageFix" stdDeviation="2"/><feComposite in2="SourceAlpha" operator="in" result="effect1_backgroundBlur_1002_10990"/><feBlend in="SourceGraphic" in2="effect1_backgroundBlur_1002_10990" mode="normal" result="shape"/></filter><filter id="h" color-interpolation-filters="sRGB" filterUnits="userSpaceOnUse" height="48" width="48" x="156" y="276.001"><feFlood flood-opacity="0" result="BackgroundImageFix"/><feGaussianBlur in="BackgroundImageFix" stdDeviation="2"/><feComposite in2="SourceAlpha" operator="in" result="effect1_backgroundBlur_1002_10990"/><feBlend in="SourceGraphic" in2="effect1_backgroundBlur_1002_10990" mode="normal" result="shape"/></filter><filter id="i" color-interpolation-filters="sRGB" filterUnits="userSpaceOnUse" height="48" width="48" x="-3.99998" y="276.001"><feFlood flood-opacity="0" result="BackgroundImageFix"/><feGaussianBlur in="BackgroundImageFix" stdDeviation="2"/><feComposite in2="SourceAlpha" operator="in" result="effect1_backgroundBlur_1002_10990"/><feBlend in="SourceGraphic" in2="effect1_backgroundBlur_1002_10990" mode="normal" result="shape"/></filter><filter id="j" color-interpolation-filters="sRGB" filterUnits="userSpaceOnUse" height="48" width="48" x="316" y="236.001"><feFlood flood-opacity="0" result="BackgroundImageFix"/><feGaussianBlur in="BackgroundImageFix" stdDeviation="2"/><feComposite in2="SourceAlpha" operator="in" result="effect1_backgroundBlur_1002_10990"/><feBlend in="SourceGraphic" in2="effect1_backgroundBlur_1002_10990" mode="normal" result="shape"/></filter><filter id="k" color-interpolation-filters="sRGB" filterUnits="userSpaceOnUse" height="48" width="48" x="316" y="116.001"><feFlood flood-opacity="0" result="BackgroundImageFix"/><feGaussianBlur in="BackgroundImageFix" stdDeviation="2"/><feComposite in2="SourceAlpha" operator="in" result="effect1_backgroundBlur_1002_10990"/><feBlend in="SourceGraphic" in2="effect1_backgroundBlur_1002_10990" mode="normal" result="shape"/></filter><filter id="l" color-interpolation-filters="sRGB" filterUnits="userSpaceOnUse" height="48" width="48" x="156" y="116.001"><feFlood flood-opacity="0" result="BackgroundImageFix"/><feGaussianBlur in="BackgroundImageFix" stdDeviation="2"/><feComposite in2="SourceAlpha" operator="in" result="effect1_backgroundBlur_1002_10990"/><feBlend in="SourceGraphic" in2="effect1_backgroundBlur_1002_10990" mode="normal" result="shape"/></filter><filter id="m" color-interpolation-filters="sRGB" filterUnits="userSpaceOnUse" height="48" width="48" x="-3.99998" y="116.001"><feFlood flood-opacity="0" result="BackgroundImageFix"/><feGaussianBlur in="BackgroundImageFix" stdDeviation="2"/><feComposite in2="SourceAlpha" operator="in" result="effect1_backgroundBlur_1002_10990"/><feBlend in="SourceGraphic" in2="effect1_backgroundBlur_1002_10990" mode="normal" result="shape"/></filter><filter id="n" color-interpolation-filters="sRGB" filterUnits="userSpaceOnUse" height="48" width="48" x="276" y="76.0005"><feFlood flood-opacity="0" result="BackgroundImageFix"/><feGaussianBlur in="BackgroundImageFix" stdDeviation="2"/><feComposite in2="SourceAlpha" operator="in" result="effect1_backgroundBlur_1002_10990"/><feBlend in="SourceGraphic" in2="effect1_backgroundBlur_1002_10990" mode="normal" result="shape"/></filter><filter id="o" color-interpolation-filters="sRGB" filterUnits="userSpaceOnUse" height="48" width="48" x="236" y="36.0005"><feFlood flood-opacity="0" result="BackgroundImageFix"/><feGaussianBlur in="BackgroundImageFix" stdDeviation="2"/><feComposite in2="SourceAlpha" operator="in" result="effect1_backgroundBlur_1002_10990"/><feBlend in="SourceGraphic" in2="effect1_backgroundBlur_1002_10990" mode="normal" result="shape"/></filter><filter id="p" color-interpolation-filters="sRGB" filterUnits="userSpaceOnUse" height="48" width="48" x="36" y="36.0005"><feFlood flood-opacity="0" result="BackgroundImageFix"/><feGaussianBlur in="BackgroundImageFix" stdDeviation="2"/><feComposite in2="SourceAlpha" operator="in" result="effect1_backgroundBlur_1002_10990"/><feBlend in="SourceGraphic" in2="effect1_backgroundBlur_1002_10990" mode="normal" result="shape"/></filter><filter id="q" color-interpolation-filters="sRGB" filterUnits="userSpaceOnUse" height="48" width="48" x="196" y="-3.99946"><feFlood flood-opacity="0" result="BackgroundImageFix"/><feGaussianBlur in="BackgroundImageFix" stdDeviation="2"/><feComposite in2="SourceAlpha" operator="in" result="effect1_backgroundBlur_1002_10990"/><feBlend in="SourceGraphic" in2="effect1_backgroundBlur_1002_10990" mode="normal" result="shape"/></filter><path d="m80.25 39.7505h39.5v39.5h-39.5z" stroke="#eef0f3" stroke-width=".5" transform="matrix(0 -1 1 0 40.4995 120.0005)"/><path d="m80.25 359.751h39.5v39.5h-39.5z" stroke="#eef0f3" stroke-width=".5" transform="matrix(0 -1 1 0 -279.501 440.001)"/><path d="m80.25 319.751h39.5v39.5h-39.5z" stroke="#eef0f3" stroke-width=".5" transform="matrix(0 -1 1 0 -239.501 400.001)"/><path d="m80.25 279.751h39.5v39.5h-39.5z" stroke="#eef0f3" stroke-width=".5" transform="matrix(0 -1 1 0 -199.501 360.001)"/><g filter="url(#a)" opacity=".8"><path d="m360 560h40v40h-40z" fill="#fff" fill-opacity=".5" transform="matrix(0 -1 1 0 -200 920)"/><path d="m360.25 559.75h39.5v39.5h-39.5z" stroke="#eef0f3" stroke-width=".5" transform="matrix(0 -1 1 0 -199.5 920)"/></g><path d="m320.25 559.751h39.5v39.5h-39.5z" stroke="#eef0f3" stroke-width=".5" transform="matrix(0 -1 1 0 -239.501 880.001)"/><path d="m280.25 559.751h39.5v39.5h-39.5z" stroke="#eef0f3" stroke-width=".5" transform="matrix(0 -1 1 0 -279.501 840.001)"/><path d="m240.25 559.751h39.5v39.5h-39.5z" stroke="#eef0f3" stroke-width=".5" transform="matrix(0 -1 1 0 -319.501 800.001)"/><path d="m40.25 559.751h39.5v39.5h-39.5z" stroke="#eef0f3" stroke-width=".5" transform="matrix(0 -1 1 0 -519.501 600.001)"/><path d="m200.25 559.751h39.5v39.5h-39.5z" stroke="#eef0f3" stroke-width=".5" transform="matrix(0 -1 1 0 -359.501 760.001)"/><path d="m160.25 559.751h39.5v39.5h-39.5z" stroke="#eef0f3" stroke-width=".5" transform="matrix(0 -1 1 0 -399.501 720.001)"/><path d="m.250024 559.751h39.5v39.5h-39.5z" stroke="#eef0f3" stroke-width=".5" transform="matrix(0 -1 1 0 -559.500976 560.001024)"/><g filter="url(#b)" opacity=".9"><path d="m120 560.001h40v40h-40z" fill="#fff" fill-opacity=".5" transform="matrix(0 -1 1 0 -440.001 680.001)"/><path d="m120.25 559.751h39.5v39.5h-39.5z" stroke="#eef0f3" stroke-width=".5" transform="matrix(0 -1 1 0 -439.501 680.001)"/></g><g filter="url(#c)" opacity=".9"><path d="m80 560.001h40v40h-40z" fill="#fff" fill-opacity=".5" transform="matrix(0 -1 1 0 -480.001 640.001)"/><path d="m80.25 559.751h39.5v39.5h-39.5z" stroke="#eef0f3" stroke-width=".5" transform="matrix(0 -1 1 0 -479.501 640.001)"/></g><g filter="url(#d)" opacity=".9"><path d="m80 240.001h40v40h-40z" fill="#fff" fill-opacity=".5" transform="matrix(0 -1 1 0 -160.001 320.001)"/><path d="m80.25 239.751h39.5v39.5h-39.5z" stroke="#eef0f3" stroke-width=".5" transform="matrix(0 -1 1 0 -159.501 320.001)"/></g><path d="m360.25 519.751h39.5v39.5h-39.5z" stroke="#eef0f3" stroke-width=".5" transform="matrix(0 -1 1 0 -159.501 880.001)"/><g filter="url(#e)" opacity=".8"><path d="m320 520.001h40v40h-40z" fill="#fff" fill-opacity=".5" transform="matrix(0 -1 1 0 -200.001 840.001)"/><path d="m320.25 519.751h39.5v39.5h-39.5z" stroke="#eef0f3" stroke-width=".5" transform="matrix(0 -1 1 0 -199.501 840.001)"/></g><g stroke="#eef0f3" stroke-width=".5"><path d="m280.25 519.751h39.5v39.5h-39.5z" transform="matrix(0 -1 1 0 -239.501 800.001)"/><path d="m240.25 519.751h39.5v39.5h-39.5z" transform="matrix(0 -1 1 0 -279.501 760.001)"/><path d="m40.25 519.751h39.5v39.5h-39.5z" transform="matrix(0 -1 1 0 -479.501 560.001)"/><path d="m200.25 519.751h39.5v39.5h-39.5z" transform="matrix(0 -1 1 0 -319.501 720.001)"/><path d="m160.25 519.751h39.5v39.5h-39.5z" transform="matrix(0 -1 1 0 -359.501 680.001)"/><path d="m.250025 519.751h39.5v39.5h-39.5z" transform="matrix(0 -1 1 0 -519.500975 520.001025)"/><path d="m120.25 519.751h39.5v39.5h-39.5z" transform="matrix(0 -1 1 0 -399.501 640.001)"/><path d="m80.25 519.751h39.5v39.5h-39.5z" transform="matrix(0 -1 1 0 -439.501 600.001)"/><path d="m80.25 199.751h39.5v39.5h-39.5z" transform="matrix(0 -1 1 0 -119.501 280.001)"/><path d="m360.25 479.751h39.5v39.5h-39.5z" transform="matrix(0 -1 1 0 -119.501 840.001)"/><path d="m320.25 479.751h39.5v39.5h-39.5z" transform="matrix(0 -1 1 0 -159.501 800.001)"/><path d="m280.25 479.751h39.5v39.5h-39.5z" transform="matrix(0 -1 1 0 -199.501 760.001)"/><path d="m240.25 479.751h39.5v39.5h-39.5z" transform="matrix(0 -1 1 0 -239.501 720.001)"/><path d="m40.25 479.751h39.5v39.5h-39.5z" transform="matrix(0 -1 1 0 -439.501 520.001)"/><path d="m200.25 479.751h39.5v39.5h-39.5z" transform="matrix(0 -1 1 0 -279.501 680.001)"/><path d="m160.25 479.751h39.5v39.5h-39.5z" transform="matrix(0 -1 1 0 -319.501 640.001)"/><path d="m.250024 479.751h39.5v39.5h-39.5z" transform="matrix(0 -1 1 0 -479.500976 480.001024)"/><path d="m120.25 479.751h39.5v39.5h-39.5z" transform="matrix(0 -1 1 0 -359.501 600.001)"/><path d="m80.25 479.751h39.5v39.5h-39.5z" transform="matrix(0 -1 1 0 -399.501 560.001)"/><path d="m80.25 159.751h39.5v39.5h-39.5z" transform="matrix(0 -1 1 0 -79.501 240.001)"/><path d="m360.25 439.751h39.5v39.5h-39.5z" transform="matrix(0 -1 1 0 -79.501 800.001)"/><path d="m320.25 439.751h39.5v39.5h-39.5z" transform="matrix(0 -1 1 0 -119.501 760.001)"/><path d="m280.25 439.751h39.5v39.5h-39.5z" transform="matrix(0 -1 1 0 -159.501 720.001)"/><path d="m240.25 439.751h39.5v39.5h-39.5z" transform="matrix(0 -1 1 0 -199.501 680.001)"/><path d="m40.25 439.751h39.5v39.5h-39.5z" transform="matrix(0 -1 1 0 -399.501 480.001)"/><path d="m200.25 439.751h39.5v39.5h-39.5z" transform="matrix(0 -1 1 0 -239.501 640.001)"/><path d="m160.25 439.751h39.5v39.5h-39.5z" transform="matrix(0 -1 1 0 -279.501 600.001)"/><path d="m.250024 439.751h39.5v39.5h-39.5z" transform="matrix(0 -1 1 0 -439.500976 440.001024)"/><path d="m120.25 439.751h39.5v39.5h-39.5z" transform="matrix(0 -1 1 0 -319.501 560.001)"/><path d="m80.25 439.751h39.5v39.5h-39.5z" transform="matrix(0 -1 1 0 -359.501 520.001)"/><path d="m80.25 119.751h39.5v39.5h-39.5z" transform="matrix(0 -1 1 0 -39.501 200.001)"/><path d="m360.25 399.751h39.5v39.5h-39.5z" transform="matrix(0 -1 1 0 -39.501 760.001)"/><path d="m320.25 399.751h39.5v39.5h-39.5z" transform="matrix(0 -1 1 0 -79.501 720.001)"/><path d="m280.25 399.751h39.5v39.5h-39.5z" transform="matrix(0 -1 1 0 -119.501 680.001)"/><path d="m240.25 399.751h39.5v39.5h-39.5z" transform="matrix(0 -1 1 0 -159.501 640.001)"/><path d="m40.25 399.751h39.5v39.5h-39.5z" transform="matrix(0 -1 1 0 -359.501 440.001)"/><path d="m200.25 399.751h39.5v39.5h-39.5z" transform="matrix(0 -1 1 0 -199.501 600.001)"/><path d="m160.25 399.751h39.5v39.5h-39.5z" transform="matrix(0 -1 1 0 -239.501 560.001)"/><path d="m.250025 399.751h39.5v39.5h-39.5z" transform="matrix(0 -1 1 0 -399.500975 400.001025)"/><path d="m120.25 399.751h39.5v39.5h-39.5z" transform="matrix(0 -1 1 0 -279.501 520.001)"/><path d="m80.25 399.751h39.5v39.5h-39.5z" transform="matrix(0 -1 1 0 -319.501 480.001)"/><path d="m80.25 79.7505h39.5v39.5h-39.5z" transform="matrix(0 -1 1 0 .4995 160.0005)"/><path d="m360.25 359.751h39.5v39.5h-39.5z" transform="matrix(0 -1 1 0 .499 720.001)"/><path d="m320.25 359.751h39.5v39.5h-39.5z" transform="matrix(0 -1 1 0 -39.501 680.001)"/><path d="m280.25 359.751h39.5v39.5h-39.5z" transform="matrix(0 -1 1 0 -79.501 640.001)"/><path d="m240.25 359.751h39.5v39.5h-39.5z" transform="matrix(0 -1 1 0 -119.501 600.001)"/><path d="m40.25 359.751h39.5v39.5h-39.5z" transform="matrix(0 -1 1 0 -319.501 400.001)"/><path d="m200.25 359.751h39.5v39.5h-39.5z" transform="matrix(0 -1 1 0 -159.501 560.001)"/><path d="m160.25 359.751h39.5v39.5h-39.5z" transform="matrix(0 -1 1 0 -199.501 520.001)"/><path d="m.250024 359.751h39.5v39.5h-39.5z" transform="matrix(0 -1 1 0 -359.500976 360.001024)"/></g><g filter="url(#f)" opacity=".9"><path d="m120 360.001h40v40h-40z" fill="#fff" fill-opacity=".5" transform="matrix(0 -1 1 0 -240.001 480.001)"/><path d="m120.25 359.751h39.5v39.5h-39.5z" stroke="#eef0f3" stroke-width=".5" transform="matrix(0 -1 1 0 -239.501 480.001)"/></g><path d="m360.25 319.751h39.5v39.5h-39.5z" stroke="#eef0f3" stroke-width=".5" transform="matrix(0 -1 1 0 40.499 680.001)"/><g filter="url(#g)" opacity=".8"><path d="m320 320.001h40v40h-40z" fill="#fff" fill-opacity=".5" transform="matrix(0 -1 1 0 -.001 640.001)"/><path d="m320.25 319.751h39.5v39.5h-39.5z" stroke="#eef0f3" stroke-width=".5" transform="matrix(0 -1 1 0 .499 640.001)"/></g><path d="m280.25 319.751h39.5v39.5h-39.5z" stroke="#eef0f3" stroke-width=".5" transform="matrix(0 -1 1 0 -39.501 600.001)"/><path d="m240.25 319.751h39.5v39.5h-39.5z" stroke="#eef0f3" stroke-width=".5" transform="matrix(0 -1 1 0 -79.501 560.001)"/><path d="m40.25 319.751h39.5v39.5h-39.5z" stroke="#eef0f3" stroke-width=".5" transform="matrix(0 -1 1 0 -279.501 360.001)"/><path d="m200.25 319.751h39.5v39.5h-39.5z" stroke="#eef0f3" stroke-width=".5" transform="matrix(0 -1 1 0 -119.501 520.001)"/><g filter="url(#h)" opacity=".9"><path d="m160 320.001h40v40h-40z" fill="#fff" fill-opacity=".5" transform="matrix(0 -1 1 0 -160.001 480.001)"/><path d="m160.25 319.751h39.5v39.5h-39.5z" stroke="#eef0f3" stroke-width=".5" transform="matrix(0 -1 1 0 -159.501 480.001)"/></g><g filter="url(#i)" opacity=".9"><path d="m.000024 320.001h40v40h-40z" fill="#fff" fill-opacity=".5" transform="matrix(0 -1 1 0 -320.000976 320.001024)"/><path d="m.250024 319.751h39.5v39.5h-39.5z" stroke="#eef0f3" stroke-width=".5" transform="matrix(0 -1 1 0 -319.500976 320.001024)"/></g><path d="m120.25 319.751h39.5v39.5h-39.5z" stroke="#eef0f3" stroke-width=".5" transform="matrix(0 -1 1 0 -199.501 440.001)"/><path d="m360.25 279.751h39.5v39.5h-39.5z" stroke="#eef0f3" stroke-width=".5" transform="matrix(0 -1 1 0 80.499 640.001)"/><g filter="url(#j)" opacity=".8"><path d="m320 280.001h40v40h-40z" fill="#fff" fill-opacity=".5" transform="matrix(0 -1 1 0 39.999 600.001)"/><path d="m320.25 279.751h39.5v39.5h-39.5z" stroke="#eef0f3" stroke-width=".5" transform="matrix(0 -1 1 0 40.499 600.001)"/></g><path d="m280.25 279.751h39.5v39.5h-39.5z" stroke="#eef0f3" stroke-width=".5" transform="matrix(0 -1 1 0 .499 560.001)"/><path d="m240.25 279.751h39.5v39.5h-39.5z" stroke="#eef0f3" stroke-width=".5" transform="matrix(0 -1 1 0 -39.501 520.001)"/><path d="m40.25 279.751h39.5v39.5h-39.5z" stroke="#eef0f3" stroke-width=".5" transform="matrix(0 -1 1 0 -239.501 320.001)"/><path d="m200.25 279.751h39.5v39.5h-39.5z" stroke="#eef0f3" stroke-width=".5" transform="matrix(0 -1 1 0 -79.501 480.001)"/><path d="m160.25 279.751h39.5v39.5h-39.5z" stroke="#eef0f3" stroke-width=".5" transform="matrix(0 -1 1 0 -119.501 440.001)"/><path d="m.250025 279.751h39.5v39.5h-39.5z" stroke="#eef0f3" stroke-width=".5" transform="matrix(0 -1 1 0 -279.500975 280.001025)"/><path d="m120.25 279.751h39.5v39.5h-39.5z" stroke="#eef0f3" stroke-width=".5" transform="matrix(0 -1 1 0 -159.501 400.001)"/><path d="m360.25 239.751h39.5v39.5h-39.5z" stroke="#eef0f3" stroke-width=".5" transform="matrix(0 -1 1 0 120.499 600.001)"/><path d="m320.25 239.751h39.5v39.5h-39.5z" stroke="#eef0f3" stroke-width=".5" transform="matrix(0 -1 1 0 80.499 560.001)"/><path d="m280.25 239.751h39.5v39.5h-39.5z" stroke="#eef0f3" stroke-width=".5" transform="matrix(0 -1 1 0 40.499 520.001)"/><path d="m240.25 239.751h39.5v39.5h-39.5z" stroke="#eef0f3" stroke-width=".5" transform="matrix(0 -1 1 0 .499 480.001)"/><path d="m40.25 239.751h39.5v39.5h-39.5z" stroke="#eef0f3" stroke-width=".5" transform="matrix(0 -1 1 0 -199.501 280.001)"/><path d="m200.25 239.751h39.5v39.5h-39.5z" stroke="#eef0f3" stroke-width=".5" transform="matrix(0 -1 1 0 -39.501 440.001)"/><path d="m160.25 239.751h39.5v39.5h-39.5z" stroke="#eef0f3" stroke-width=".5" transform="matrix(0 -1 1 0 -79.501 400.001)"/><path d="m.250024 239.751h39.5v39.5h-39.5z" stroke="#eef0f3" stroke-width=".5" transform="matrix(0 -1 1 0 -239.500976 240.001024)"/><path d="m120.25 239.751h39.5v39.5h-39.5z" stroke="#eef0f3" stroke-width=".5" transform="matrix(0 -1 1 0 -119.501 360.001)"/><path d="m360.25 199.751h39.5v39.5h-39.5z" stroke="#eef0f3" stroke-width=".5" transform="matrix(0 -1 1 0 160.499 560.001)"/><path d="m320.25 199.751h39.5v39.5h-39.5z" stroke="#eef0f3" stroke-width=".5" transform="matrix(0 -1 1 0 120.499 520.001)"/><path d="m280.25 199.751h39.5v39.5h-39.5z" stroke="#eef0f3" stroke-width=".5" transform="matrix(0 -1 1 0 80.499 480.001)"/><path d="m240.25 199.751h39.5v39.5h-39.5z" stroke="#eef0f3" stroke-width=".5" transform="matrix(0 -1 1 0 40.499 440.001)"/><path d="m40.25 199.751h39.5v39.5h-39.5z" stroke="#eef0f3" stroke-width=".5" transform="matrix(0 -1 1 0 -159.501 240.001)"/><path d="m200.25 199.751h39.5v39.5h-39.5z" stroke="#eef0f3" stroke-width=".5" transform="matrix(0 -1 1 0 .499 400.001)"/><path d="m160.25 199.751h39.5v39.5h-39.5z" stroke="#eef0f3" stroke-width=".5" transform="matrix(0 -1 1 0 -39.501 360.001)"/><path d="m.250024 199.751h39.5v39.5h-39.5z" stroke="#eef0f3" stroke-width=".5" transform="matrix(0 -1 1 0 -199.500976 200.001024)"/><path d="m120.25 199.751h39.5v39.5h-39.5z" stroke="#eef0f3" stroke-width=".5" transform="matrix(0 -1 1 0 -79.501 320.001)"/><path d="m360.25 159.751h39.5v39.5h-39.5z" stroke="#eef0f3" stroke-width=".5" transform="matrix(0 -1 1 0 200.499 520.001)"/><g filter="url(#k)" opacity=".8"><path d="m320 160.001h40v40h-40z" fill="#fff" fill-opacity=".5" transform="matrix(0 -1 1 0 159.999 480.001)"/><path d="m320.25 159.751h39.5v39.5h-39.5z" stroke="#eef0f3" stroke-width=".5" transform="matrix(0 -1 1 0 160.499 480.001)"/></g><path d="m280.25 159.751h39.5v39.5h-39.5z" stroke="#eef0f3" stroke-width=".5" transform="matrix(0 -1 1 0 120.499 440.001)"/><path d="m240.25 159.751h39.5v39.5h-39.5z" stroke="#eef0f3" stroke-width=".5" transform="matrix(0 -1 1 0 80.499 400.001)"/><path d="m40.25 159.751h39.5v39.5h-39.5z" stroke="#eef0f3" stroke-width=".5" transform="matrix(0 -1 1 0 -119.501 200.001)"/><path d="m200.25 159.751h39.5v39.5h-39.5z" stroke="#eef0f3" stroke-width=".5" transform="matrix(0 -1 1 0 40.499 360.001)"/><g filter="url(#l)" opacity=".9"><path d="m160 160.001h40v40h-40z" fill="#fff" fill-opacity=".5" transform="matrix(0 -1 1 0 -.001 320.001)"/><path d="m160.25 159.751h39.5v39.5h-39.5z" stroke="#eef0f3" stroke-width=".5" transform="matrix(0 -1 1 0 .499 320.001)"/></g><g filter="url(#m)" opacity=".9"><path d="m.000025 160.001h40v40h-40z" fill="#fff" fill-opacity=".5" transform="matrix(0 -1 1 0 -160.000975 160.001025)"/><path d="m.250025 159.751h39.5v39.5h-39.5z" stroke="#eef0f3" stroke-width=".5" transform="matrix(0 -1 1 0 -159.500975 160.001025)"/></g><path d="m120.25 159.751h39.5v39.5h-39.5z" stroke="#eef0f3" stroke-width=".5" transform="matrix(0 -1 1 0 -39.501 280.001)"/><path d="m360.25 119.751h39.5v39.5h-39.5z" stroke="#eef0f3" stroke-width=".5" transform="matrix(0 -1 1 0 240.499 480.001)"/><path d="m320.25 119.751h39.5v39.5h-39.5z" stroke="#eef0f3" stroke-width=".5" transform="matrix(0 -1 1 0 200.499 440.001)"/><g filter="url(#n)" opacity=".8"><path d="m280 120.001h40v40h-40z" fill="#fff" fill-opacity=".5" transform="matrix(0 -1 1 0 159.999 400.001)"/><path d="m280.25 119.751h39.5v39.5h-39.5z" stroke="#eef0f3" stroke-width=".5" transform="matrix(0 -1 1 0 160.499 400.001)"/></g><path d="m240.25 119.751h39.5v39.5h-39.5z" stroke="#eef0f3" stroke-width=".5" transform="matrix(0 -1 1 0 120.499 360.001)"/><path d="m40.25 119.751h39.5v39.5h-39.5z" stroke="#eef0f3" stroke-width=".5" transform="matrix(0 -1 1 0 -79.501 160.001)"/><path d="m200.25 119.751h39.5v39.5h-39.5z" stroke="#eef0f3" stroke-width=".5" transform="matrix(0 -1 1 0 80.499 320.001)"/><path d="m160.25 119.751h39.5v39.5h-39.5z" stroke="#eef0f3" stroke-width=".5" transform="matrix(0 -1 1 0 40.499 280.001)"/><path d="m.250024 119.751h39.5v39.5h-39.5z" stroke="#eef0f3" stroke-width=".5" transform="matrix(0 -1 1 0 -119.500976 120.001024)"/><path d="m120.25 119.751h39.5v39.5h-39.5z" stroke="#eef0f3" stroke-width=".5" transform="matrix(0 -1 1 0 .499 240.001)"/><path d="m360.25 79.7505h39.5v39.5h-39.5z" stroke="#eef0f3" stroke-width=".5" transform="matrix(0 -1 1 0 280.4995 440.0005)"/><path d="m320.25 79.7505h39.5v39.5h-39.5z" stroke="#eef0f3" stroke-width=".5" transform="matrix(0 -1 1 0 240.4995 400.0005)"/><path d="m280.25 79.7505h39.5v39.5h-39.5z" stroke="#eef0f3" stroke-width=".5" transform="matrix(0 -1 1 0 200.4995 360.0005)"/><g filter="url(#o)" opacity=".9"><path d="m240 80.0005h40v40h-40z" fill="#fff" fill-opacity=".5" transform="matrix(0 -1 1 0 159.9995 320.0005)"/><path d="m240.25 79.7505h39.5v39.5h-39.5z" stroke="#eef0f3" stroke-width=".5" transform="matrix(0 -1 1 0 160.4995 320.0005)"/></g><g filter="url(#p)" opacity=".9"><path d="m40 80.0005h40v40h-40z" fill="#fff" fill-opacity=".5" transform="matrix(0 -1 1 0 -40.0005 120.0005)"/><path d="m40.25 79.7505h39.5v39.5h-39.5z" stroke="#eef0f3" stroke-width=".5" transform="matrix(0 -1 1 0 -39.5005 120.0005)"/></g><path d="m200.25 79.7505h39.5v39.5h-39.5z" stroke="#eef0f3" stroke-width=".5" transform="matrix(0 -1 1 0 120.4995 280.0005)"/><path d="m160.25 79.7505h39.5v39.5h-39.5z" stroke="#eef0f3" stroke-width=".5" transform="matrix(0 -1 1 0 80.4995 240.0005)"/><path d="m.250024 79.7505h39.5v39.5h-39.5z" stroke="#eef0f3" stroke-width=".5" transform="matrix(0 -1 1 0 -79.500476 80.000524)"/><path d="m120.25 79.7505h39.5v39.5h-39.5z" stroke="#eef0f3" stroke-width=".5" transform="matrix(0 -1 1 0 40.4995 200.0005)"/><path d="m360.25 39.7505h39.5v39.5h-39.5z" stroke="#eef0f3" stroke-width=".5" transform="matrix(0 -1 1 0 320.4995 400.0005)"/><path d="m320.25 39.7505h39.5v39.5h-39.5z" stroke="#eef0f3" stroke-width=".5" transform="matrix(0 -1 1 0 280.4995 360.0005)"/><path d="m280.25 39.7505h39.5v39.5h-39.5z" stroke="#eef0f3" stroke-width=".5" transform="matrix(0 -1 1 0 240.4995 320.0005)"/><path d="m240.25 39.7505h39.5v39.5h-39.5z" stroke="#eef0f3" stroke-width=".5" transform="matrix(0 -1 1 0 200.4995 280.0005)"/><path d="m40.25 39.7505h39.5v39.5h-39.5z" stroke="#eef0f3" stroke-width=".5" transform="matrix(0 -1 1 0 .4995 80.0005)"/><g filter="url(#q)" opacity=".9"><path d="m200 40.0005h40v40h-40z" fill="#fff" fill-opacity=".5" transform="matrix(0 -1 1 0 159.9995 240.0005)"/><path d="m200.25 39.7505h39.5v39.5h-39.5z" stroke="#eef0f3" stroke-width=".5" transform="matrix(0 -1 1 0 160.4995 240.0005)"/></g><path d="m160.25 39.7505h39.5v39.5h-39.5z" stroke="#eef0f3" stroke-width=".5" transform="matrix(0 -1 1 0 120.4995 200.0005)"/><path d="m.250025 39.7505h39.5v39.5h-39.5z" stroke="#eef0f3" stroke-width=".5" transform="matrix(0 -1 1 0 -39.500475 40.000525)"/><path d="m120.25 39.7505h39.5v39.5h-39.5z" stroke="#eef0f3" stroke-width=".5" transform="matrix(0 -1 1 0 80.4995 160.0005)"/></svg>