<svg width="145" height="31" viewBox="0 0 145 31" fill="none" xmlns="http://www.w3.org/2000/svg">
<g id="Logo 1">
<g id="true">
<path fill-rule="evenodd" clip-rule="evenodd" d="M3.60742 12.5077H1V9.29542L3.83091 9.10866L4.35239 4.10352H7.92828V9.10866H12.5844V12.5077H7.92828V21.248C7.92828 23.3895 8.785 24.4603 10.4984 24.4603C10.8213 24.4603 11.1503 24.4229 11.4855 24.3482C11.8208 24.2735 12.125 24.1739 12.3981 24.0494L13.1431 27.2243C12.6465 27.3986 12.0815 27.5542 11.4483 27.6912C10.8151 27.8281 10.1384 27.8966 9.41823 27.8966C8.35043 27.8966 7.45026 27.7348 6.71769 27.411C5.98513 27.0873 5.38915 26.6329 4.92975 26.0477C4.47035 25.4625 4.13511 24.7653 3.92403 23.956C3.71295 23.1467 3.60742 22.2441 3.60742 21.248V12.5077ZM16.421 9.10866H19.9597L20.2576 12.3583H20.4066C21.0523 11.163 21.8345 10.2479 22.7533 9.61291C23.6721 8.97792 24.6157 8.66044 25.5842 8.66044C26.4534 8.66044 27.1487 8.78494 27.6702 9.03395L26.9252 12.7691C26.6024 12.6695 26.3044 12.5948 26.0312 12.545C25.758 12.4952 25.4228 12.4703 25.0255 12.4703C24.3053 12.4703 23.548 12.7505 22.7533 13.3107C21.9587 13.871 21.2758 14.8484 20.7046 16.2429V27.4484H16.421V9.10866ZM30.1286 9.10866H34.4122V20.0527C34.4122 21.5717 34.6357 22.6425 35.0827 23.265C35.5297 23.8875 36.2498 24.1988 37.2431 24.1988C38.0378 24.1988 38.7393 23.9996 39.3477 23.6012C39.9561 23.2027 40.6079 22.5553 41.3032 21.6589V9.10866H45.5868V27.4484H42.0854L41.7502 24.7591H41.6385C40.8438 25.7053 39.9809 26.4648 39.0497 27.0375C38.1184 27.6103 37.0196 27.8966 35.7532 27.8966C33.7914 27.8966 32.3635 27.2679 31.4695 26.0104C30.5756 24.7528 30.1286 22.9537 30.1286 20.613V9.10866ZM49.8332 18.2972C49.8332 16.8031 50.0691 15.4585 50.5409 14.2632C51.0128 13.0679 51.6398 12.0595 52.422 11.2377C53.2042 10.416 54.1044 9.78099 55.1225 9.33277C56.1407 8.88455 57.1836 8.66044 58.2514 8.66044C59.4931 8.66044 60.5857 8.87209 61.5293 9.29542C62.473 9.71874 63.2614 10.3164 63.8946 11.0883C64.5279 11.8602 65.0059 12.7816 65.3287 13.8523C65.6515 14.9231 65.813 16.0934 65.813 17.3634C65.813 18.2101 65.7509 18.8824 65.6267 19.3804H54.0051C54.2037 21.0488 54.7811 22.3312 55.7371 23.2276C56.6932 24.1241 57.9162 24.5723 59.4062 24.5723C60.2008 24.5723 60.9396 24.454 61.6225 24.2175C62.3054 23.9809 62.982 23.651 63.6525 23.2276L65.1052 25.917C64.2361 26.4897 63.2676 26.9628 62.1998 27.3363C61.132 27.7099 60.0146 27.8966 58.8474 27.8966C57.581 27.8966 56.4014 27.6787 55.3088 27.243C54.2161 26.8072 53.2601 26.1784 52.4406 25.3567C51.6211 24.535 50.9817 23.5327 50.5223 22.3499C50.0629 21.1671 49.8332 19.8162 49.8332 18.2972ZM62.0881 16.6537C62.0881 15.1845 61.7839 14.0391 61.1755 13.2174C60.5671 12.3956 59.6297 11.9847 58.3632 11.9847C57.2705 11.9847 56.3145 12.3769 55.495 13.1613C54.6755 13.9457 54.1665 15.1098 53.9678 16.6537H62.0881Z" fill="#0D1116"/>
<path d="M3.60742 12.5077H3.75742V12.3577H3.60742V12.5077ZM1 12.5077H0.85V12.6577H1V12.5077ZM1 9.29542L0.990126 9.14574L0.85 9.15499V9.29542H1ZM3.83091 9.10866L3.84078 9.25833L3.967 9.25001L3.9801 9.1242L3.83091 9.10866ZM4.35239 4.10352V3.95352H4.21721L4.2032 4.08797L4.35239 4.10352ZM7.92828 4.10352H8.07828V3.95352H7.92828V4.10352ZM7.92828 9.10866H7.77828V9.25866H7.92828V9.10866ZM12.5844 9.10866H12.7344V8.95866H12.5844V9.10866ZM12.5844 12.5077V12.6577H12.7344V12.5077H12.5844ZM7.92828 12.5077V12.3577H7.77828V12.5077H7.92828ZM12.3981 24.0494L12.5442 24.0151L12.5024 23.837L12.3359 23.9129L12.3981 24.0494ZM13.1431 27.2243L13.1928 27.3658L13.3199 27.3212L13.2891 27.19L13.1431 27.2243ZM16.421 9.10866V8.95866H16.271V9.10866H16.421ZM19.9597 9.10866L20.109 9.09496L20.0965 8.95866H19.9597V9.10866ZM20.2576 12.3583L20.1083 12.372L20.1208 12.5083H20.2576V12.3583ZM20.4066 12.3583V12.5083H20.4961L20.5386 12.4296L20.4066 12.3583ZM27.6702 9.03395L27.8173 9.06329L27.8401 8.94887L27.7348 8.89859L27.6702 9.03395ZM26.9252 12.7691L26.881 12.9125L27.0398 12.9615L27.0723 12.7985L26.9252 12.7691ZM20.7046 16.2429L20.5658 16.186L20.5546 16.2133V16.2429H20.7046ZM20.7046 27.4484V27.5984H20.8546V27.4484H20.7046ZM16.421 27.4484H16.271V27.5984H16.421V27.4484ZM30.1286 9.10866V8.95866H29.9786V9.10866H30.1286ZM34.4122 9.10866H34.5622V8.95866H34.4122V9.10866ZM41.3032 21.6589L41.4217 21.7508L41.4532 21.7102V21.6589H41.3032ZM41.3032 9.10866V8.95866H41.1532V9.10866H41.3032ZM45.5868 9.10866H45.7368V8.95866H45.5868V9.10866ZM45.5868 27.4484V27.5984H45.7368V27.4484H45.5868ZM42.0854 27.4484L41.9366 27.467L41.953 27.5984H42.0854V27.4484ZM41.7502 24.7591L41.8991 24.7405L41.8827 24.6091H41.7502V24.7591ZM41.6385 24.7591V24.6091H41.5686L41.5236 24.6626L41.6385 24.7591ZM65.813 17.3634H65.963H65.813ZM65.6267 19.3804V19.5304H65.7439L65.7722 19.4167L65.6267 19.3804ZM54.0051 19.3804V19.2304H53.8362L53.8561 19.3981L54.0051 19.3804ZM63.6525 23.2276L63.7845 23.1564L63.7082 23.0151L63.5724 23.1008L63.6525 23.2276ZM65.1052 25.917L65.1878 26.0422L65.3025 25.9666L65.2372 25.8457L65.1052 25.917ZM62.0881 16.6537V16.8037H62.2381V16.6537H62.0881ZM53.9678 16.6537L53.819 16.6346L53.7973 16.8037H53.9678V16.6537ZM3.60742 12.3577H1V12.6577H3.60742V12.3577ZM1.15 12.5077V9.29542H0.85V12.5077H1.15ZM1.00987 9.44509L3.84078 9.25833L3.82104 8.95898L0.990126 9.14574L1.00987 9.44509ZM3.9801 9.1242L4.50159 4.11906L4.2032 4.08797L3.68172 9.09311L3.9801 9.1242ZM4.35239 4.25352H7.92828V3.95352H4.35239V4.25352ZM7.77828 4.10352V9.10866H8.07828V4.10352H7.77828ZM7.92828 9.25866H12.5844V8.95866H7.92828V9.25866ZM12.4344 9.10866V12.5077H12.7344V9.10866H12.4344ZM12.5844 12.3577H7.92828V12.6577H12.5844V12.3577ZM7.77828 12.5077V21.248H8.07828V12.5077H7.77828ZM7.77828 21.248C7.77828 22.3348 7.99501 23.1776 8.4537 23.7509C8.91749 24.3306 9.60862 24.6103 10.4984 24.6103V24.3103C9.67482 24.3103 9.08087 24.0546 8.68794 23.5635C8.28991 23.066 8.07828 22.3027 8.07828 21.248H7.77828ZM10.4984 24.6103C10.8329 24.6103 11.1729 24.5715 11.5182 24.4946L11.4529 24.2018C11.1277 24.2743 10.8096 24.3103 10.4984 24.3103V24.6103ZM11.5182 24.4946C11.8622 24.418 12.1765 24.3153 12.4604 24.1859L12.3359 23.9129C12.0735 24.0325 11.7794 24.129 11.4529 24.2018L11.5182 24.4946ZM12.2521 24.0836L12.9971 27.2586L13.2891 27.19L12.5442 24.0151L12.2521 24.0836ZM13.0934 27.0828C12.6038 27.2546 12.0451 27.4086 11.4166 27.5446L11.48 27.8378C12.118 27.6998 12.6891 27.5426 13.1928 27.3658L13.0934 27.0828ZM11.4166 27.5446C10.7949 27.679 10.1289 27.7466 9.41823 27.7466V28.0466C10.1479 28.0466 10.8353 27.9772 11.48 27.8378L11.4166 27.5446ZM9.41823 27.7466C8.36471 27.7466 7.48656 27.5868 6.77832 27.2738L6.65707 27.5482C7.41396 27.8827 8.33615 28.0466 9.41823 28.0466V27.7466ZM6.77832 27.2738C6.06648 26.9593 5.49081 26.5195 5.04774 25.9551L4.81177 26.1403C5.2875 26.7463 5.90379 27.2154 6.65707 27.5482L6.77832 27.2738ZM5.04774 25.9551C4.60254 25.388 4.2757 24.71 4.06918 23.9181L3.77889 23.9939C3.99452 24.8206 4.33815 25.5371 4.81177 26.1403L5.04774 25.9551ZM4.06918 23.9181C3.86187 23.1233 3.75742 22.2336 3.75742 21.248H3.45742C3.45742 22.2545 3.56404 23.1701 3.77889 23.9939L4.06918 23.9181ZM3.75742 21.248V12.5077H3.45742V21.248H3.75742ZM16.421 9.25866H19.9597V8.95866H16.421V9.25866ZM19.8103 9.12236L20.1083 12.372L20.407 12.3446L20.109 9.09496L19.8103 9.12236ZM20.2576 12.5083H20.4066V12.2083H20.2576V12.5083ZM20.5386 12.4296C21.1754 11.2507 21.943 10.3552 22.8386 9.73631L22.668 9.48951C21.726 10.1405 20.9291 11.0753 20.2747 12.287L20.5386 12.4296ZM22.8386 9.73631C23.7363 9.11591 24.6507 8.81044 25.5842 8.81044V8.51044C24.5808 8.51044 23.6079 8.83994 22.668 9.48951L22.8386 9.73631ZM25.5842 8.81044C26.4413 8.81044 27.1118 8.93356 27.6055 9.16931L27.7348 8.89859C27.1855 8.63632 26.4655 8.51044 25.5842 8.51044V8.81044ZM27.5231 9.00462L26.7781 12.7398L27.0723 12.7985L27.8173 9.06329L27.5231 9.00462ZM26.9694 12.6258C26.6421 12.5248 26.3382 12.4485 26.0581 12.3975L26.0043 12.6926C26.2705 12.7411 26.5626 12.8143 26.881 12.9125L26.9694 12.6258ZM26.0581 12.3975C25.7732 12.3455 25.4283 12.3203 25.0255 12.3203V12.6203C25.4173 12.6203 25.7429 12.6449 26.0043 12.6926L26.0581 12.3975ZM25.0255 12.3203C24.2652 12.3203 23.4781 12.6162 22.6669 13.1881L22.8397 13.4333C23.6178 12.8848 24.3455 12.6203 25.0255 12.6203V12.3203ZM22.6669 13.1881C21.8393 13.7716 21.1423 14.7785 20.5658 16.186L20.8434 16.2997C21.4092 14.9183 22.078 13.9704 22.8397 13.4333L22.6669 13.1881ZM20.5546 16.2429V27.4484H20.8546V16.2429H20.5546ZM20.7046 27.2984H16.421V27.5984H20.7046V27.2984ZM16.571 27.4484V9.10866H16.271V27.4484H16.571ZM30.1286 9.25866H34.4122V8.95866H30.1286V9.25866ZM34.2622 9.10866V20.0527H34.5622V9.10866H34.2622ZM34.2622 20.0527C34.2622 21.5773 34.4847 22.6894 34.9608 23.3525L35.2045 23.1775C34.7866 22.5955 34.5622 21.5661 34.5622 20.0527H34.2622ZM34.9608 23.3525C35.4441 24.0255 36.2173 24.3488 37.2431 24.3488V24.0488C36.2823 24.0488 35.6152 23.7495 35.2045 23.1775L34.9608 23.3525ZM37.2431 24.3488C38.0641 24.3488 38.7948 24.1425 39.4298 23.7266L39.2655 23.4757C38.6838 23.8566 38.0114 24.0488 37.2431 24.0488V24.3488ZM39.4298 23.7266C40.0577 23.3155 40.7213 22.6539 41.4217 21.7508L41.1847 21.5669C40.4945 22.4568 39.8545 23.09 39.2655 23.4757L39.4298 23.7266ZM41.4532 21.6589V9.10866H41.1532V21.6589H41.4532ZM41.3032 9.25866H45.5868V8.95866H41.3032V9.25866ZM45.4368 9.10866V27.4484H45.7368V9.10866H45.4368ZM45.5868 27.2984H42.0854V27.5984H45.5868V27.2984ZM42.2343 27.4298L41.8991 24.7405L41.6014 24.7776L41.9366 27.467L42.2343 27.4298ZM41.7502 24.6091H41.6385V24.9091H41.7502V24.6091ZM41.5236 24.6626C40.738 25.5981 39.887 26.3465 38.9711 26.9098L39.1283 27.1653C40.0748 26.5831 40.9497 25.8125 41.7533 24.8555L41.5236 24.6626ZM38.9711 26.9098C38.067 27.4658 36.9963 27.7466 35.7532 27.7466V28.0466C37.0429 28.0466 38.1699 27.7547 39.1283 27.1653L38.9711 26.9098ZM35.7532 27.7466C33.8252 27.7466 32.4501 27.1308 31.5918 25.9234L31.3473 26.0973C32.2769 27.405 33.7575 28.0466 35.7532 28.0466V27.7466ZM31.5918 25.9234C30.723 24.7014 30.2786 22.9377 30.2786 20.613H29.9786C29.9786 22.9697 30.4281 24.8043 31.3473 26.0973L31.5918 25.9234ZM30.2786 20.613V9.10866H29.9786V20.613H30.2786ZM49.9832 18.2972C49.9832 16.819 50.2166 15.4934 50.6805 14.3183L50.4014 14.2081C49.9216 15.4235 49.6832 16.7873 49.6832 18.2972H49.9832ZM50.6805 14.3183C51.1461 13.1386 51.7634 12.1472 52.5306 11.3411L52.3134 11.1343C51.5162 11.9717 50.8794 12.9973 50.4014 14.2081L50.6805 14.3183ZM52.5306 11.3411C53.2995 10.5335 54.1834 9.91013 55.183 9.47005L55.0621 9.19548C54.0254 9.65186 53.109 10.2985 52.3134 11.1343L52.5306 11.3411ZM55.183 9.47005C56.1829 9.02986 57.2053 8.81044 58.2514 8.81044V8.51044C57.162 8.51044 56.0985 8.73923 55.0621 9.19548L55.183 9.47005ZM58.2514 8.81044C59.4761 8.81044 60.5471 9.01917 61.4679 9.43228L61.5907 9.15856C60.6243 8.72502 59.5101 8.51044 58.2514 8.51044V8.81044ZM61.4679 9.43228C62.3912 9.84645 63.1607 10.4301 63.7787 11.1834L64.0106 10.9932C63.3621 10.2026 62.5548 9.59103 61.5907 9.15856L61.4679 9.43228ZM63.7787 11.1834C64.3979 11.9384 64.8673 12.8415 65.1851 13.8956L65.4723 13.809C65.1445 12.7216 64.6578 11.7821 64.0106 10.9932L63.7787 11.1834ZM65.1851 13.8956C65.5032 14.9506 65.6629 16.1062 65.6629 17.3634H65.963C65.963 16.0807 65.7999 14.8956 65.4723 13.809L65.1851 13.8956ZM65.6629 17.3634C65.6629 18.2046 65.6011 18.8631 65.4812 19.3441L65.7722 19.4167C65.9007 18.9016 65.963 18.2155 65.963 17.3634H65.6629ZM65.6267 19.2304H54.0051V19.5304H65.6267V19.2304ZM53.8561 19.3981C54.0578 21.0915 54.6462 22.4103 55.6345 23.3371L55.8397 23.1182C54.916 22.2521 54.3497 21.0061 54.154 19.3627L53.8561 19.3981ZM55.6345 23.3371C56.6222 24.2632 57.8837 24.7223 59.4062 24.7223V24.4223C57.9487 24.4223 56.7642 23.985 55.8397 23.1182L55.6345 23.3371ZM59.4062 24.7223C60.2159 24.7223 60.9714 24.6018 61.6716 24.3592L61.5734 24.0757C60.9077 24.3063 60.1857 24.4223 59.4062 24.4223V24.7223ZM61.6716 24.3592C62.3663 24.1185 63.0533 23.7834 63.7326 23.3545L63.5724 23.1008C62.9107 23.5186 62.2444 23.8433 61.5734 24.0757L61.6716 24.3592ZM63.5205 23.2989L64.9732 25.9883L65.2372 25.8457L63.7845 23.1564L63.5205 23.2989ZM65.0227 25.7917C64.1647 26.3571 63.2075 26.825 62.1503 27.1948L62.2493 27.4779C63.3278 27.1007 64.3075 26.6223 65.1878 26.0422L65.0227 25.7917ZM62.1503 27.1948C61.0989 27.5625 59.9982 27.7466 58.8474 27.7466V28.0466C60.0309 28.0466 61.1651 27.8572 62.2493 27.4779L62.1503 27.1948ZM58.8474 27.7466C57.5985 27.7466 56.438 27.5318 55.3643 27.1036L55.2532 27.3823C56.3648 27.8256 57.5634 28.0466 58.8474 28.0466V27.7466ZM55.3643 27.1036C54.2904 26.6753 53.3517 26.0578 52.5468 25.2508L52.3344 25.4626C53.1685 26.299 54.1419 26.9391 55.2532 27.3823L55.3643 27.1036ZM52.5468 25.2508C51.7433 24.445 51.1147 23.4609 50.6621 22.2956L50.3825 22.4042C50.8487 23.6045 51.499 24.6249 52.3344 25.4626L52.5468 25.2508ZM50.6621 22.2956C50.2106 21.1331 49.9832 19.8012 49.9832 18.2972H49.6832C49.6832 19.8312 49.9152 21.201 50.3825 22.4042L50.6621 22.2956ZM62.2381 16.6537C62.2381 15.166 61.9303 13.9848 61.296 13.1281L61.0549 13.3066C61.6375 14.0934 61.9381 15.2031 61.9381 16.6537H62.2381ZM61.296 13.1281C60.6526 12.259 59.6645 11.8347 58.3632 11.8347V12.1347C59.5948 12.1347 60.4816 12.5322 61.0549 13.3066L61.296 13.1281ZM58.3632 11.8347C57.2303 11.8347 56.2375 12.243 55.3913 13.053L55.5987 13.2697C56.3915 12.5109 57.3108 12.1347 58.3632 12.1347V11.8347ZM55.3913 13.053C54.5392 13.8686 54.0205 15.0692 53.819 16.6346L54.1166 16.6729C54.3125 15.1504 54.8119 14.0229 55.5987 13.2697L55.3913 13.053ZM53.9678 16.8037H62.0881V16.5037H53.9678V16.8037Z" fill="white"/>
</g>
<g id="ail">
<path fill-rule="evenodd" clip-rule="evenodd" d="M107.993 22.5172C107.993 20.5498 108.839 19.0307 110.531 17.9598C112.222 16.8889 114.92 16.1418 118.622 15.7184C118.622 15.2452 118.561 14.7907 118.438 14.3549C118.316 13.9191 118.126 13.533 117.868 13.1968C117.611 12.8606 117.28 12.5991 116.875 12.4124C116.47 12.2256 115.962 12.1322 115.349 12.1322C114.441 12.1322 113.565 12.3065 112.719 12.6552C111.873 13.0038 111.058 13.4272 110.273 13.9253L108.728 11.0489C109.734 10.4013 110.855 9.841 112.094 9.36782C113.332 8.89463 114.674 8.65805 116.121 8.65805C118.401 8.65805 120.093 9.33668 121.197 10.694C122.3 12.0513 122.852 14.0124 122.852 16.5776V27.4483H119.394L119.063 25.431H118.953C118.144 26.1284 117.28 26.7136 116.36 27.1868C115.441 27.66 114.441 27.8966 113.363 27.8966C111.769 27.8966 110.475 27.4047 109.482 26.421C108.489 25.4373 107.993 24.136 107.993 22.5172ZM112.112 22.181C112.112 23.0029 112.351 23.6006 112.829 23.9741C113.307 24.3477 113.927 24.5345 114.687 24.5345C115.422 24.5345 116.097 24.3602 116.71 24.0115C117.323 23.6628 117.96 23.1648 118.622 22.5172V18.408C117.396 18.5575 116.366 18.7567 115.533 19.0057C114.699 19.2548 114.031 19.535 113.528 19.8463C113.025 20.1576 112.664 20.5125 112.443 20.9109C112.222 21.3094 112.112 21.7328 112.112 22.181ZM130.134 5.89368C129.374 5.89368 128.749 5.66954 128.258 5.22126C127.768 4.77299 127.523 4.18774 127.523 3.46552C127.523 2.74329 127.768 2.15182 128.258 1.69109C128.749 1.23036 129.374 1 130.134 1C130.894 1 131.519 1.23036 132.01 1.69109C132.5 2.15182 132.745 2.74329 132.745 3.46552C132.745 4.18774 132.5 4.77299 132.01 5.22126C131.519 5.66954 130.894 5.89368 130.134 5.89368ZM128.001 9.10632H132.231V27.4483H128.001V9.10632ZM137.637 1.07471H141.867V22.9655C141.867 23.4885 141.965 23.8558 142.161 24.0675C142.357 24.2792 142.566 24.3851 142.786 24.3851H143.062C143.148 24.3851 143.277 24.3602 143.448 24.3103L144 27.523C143.436 27.772 142.688 27.8966 141.756 27.8966C140.236 27.8966 139.17 27.4358 138.557 26.5144C137.944 25.5929 137.637 24.3353 137.637 22.7414V1.07471Z" fill="#0D1116"/>
<path d="M118.622 15.7184L118.639 15.8674L118.772 15.8522V15.7184H118.622ZM110.273 13.9253L110.141 13.9963L110.217 14.1384L110.354 14.0519L110.273 13.9253ZM108.728 11.0489L108.647 10.9227L108.531 10.9978L108.596 11.1198L108.728 11.0489ZM122.852 27.4483V27.5983H123.002V27.4483H122.852ZM119.394 27.4483L119.246 27.4726L119.267 27.5983H119.394V27.4483ZM119.063 25.431L119.211 25.4067L119.191 25.281H119.063V25.431ZM118.953 25.431V25.281H118.897L118.855 25.3174L118.953 25.431ZM118.622 22.5172L118.727 22.6245L118.772 22.5804V22.5172H118.622ZM118.622 18.408H118.772V18.2387L118.604 18.2591L118.622 18.408ZM130.134 5.89368V5.74368V5.89368ZM128.001 9.10632V8.95632H127.851V9.10632H128.001ZM132.231 9.10632H132.381V8.95632H132.231V9.10632ZM132.231 27.4483V27.5983H132.381V27.4483H132.231ZM128.001 27.4483H127.851V27.5983H128.001V27.4483ZM137.637 1.07471V0.924713H137.487V1.07471H137.637ZM141.867 1.07471H142.017V0.924713H141.867V1.07471ZM143.448 24.3103L143.596 24.285L143.568 24.1195L143.406 24.1663L143.448 24.3103ZM144 27.523L144.061 27.6602L144.168 27.6129L144.148 27.4976L144 27.523ZM108.143 22.5172C108.143 20.6023 108.961 19.1305 110.611 18.0865L110.45 17.833C108.716 18.9308 107.843 20.4973 107.843 22.5172H108.143ZM110.611 18.0865C112.273 17.0341 114.943 16.2901 118.639 15.8674L118.605 15.5694C114.896 15.9935 112.171 16.7436 110.45 17.833L110.611 18.0865ZM118.772 15.7184C118.772 15.2321 118.709 14.7639 118.583 14.3143L118.294 14.3955C118.413 14.8175 118.472 15.2583 118.472 15.7184H118.772ZM118.583 14.3143C118.455 13.8614 118.257 13.458 117.987 13.1056L117.749 13.288C117.994 13.6081 118.176 13.9767 118.294 14.3955L118.583 14.3143ZM117.987 13.1056C117.714 12.7491 117.363 12.4726 116.938 12.2762L116.812 12.5485C117.196 12.7257 117.507 12.9722 117.749 13.288L117.987 13.1056ZM116.938 12.2762C116.508 12.0775 115.976 11.9822 115.349 11.9822V12.2822C115.948 12.2822 116.433 12.3736 116.812 12.5485L116.938 12.2762ZM115.349 11.9822C114.422 11.9822 113.526 12.1604 112.662 12.5165L112.776 12.7939C113.604 12.4526 114.461 12.2822 115.349 12.2822V11.9822ZM112.662 12.5165C111.808 12.8685 110.985 13.296 110.193 13.7986L110.354 14.0519C111.131 13.5584 111.938 13.1391 112.776 12.7939L112.662 12.5165ZM110.405 13.8543L108.861 10.9779L108.596 11.1198L110.141 13.9963L110.405 13.8543ZM108.81 11.175C109.805 10.5336 110.918 9.97781 112.147 9.50793L112.04 9.2277C110.793 9.70419 109.662 10.269 108.647 10.9227L108.81 11.175ZM112.147 9.50793C113.367 9.04186 114.691 8.80805 116.121 8.80805V8.50805C114.658 8.50805 113.297 8.74741 112.04 9.2277L112.147 9.50793ZM116.121 8.80805C118.371 8.80805 120.014 9.47639 121.08 10.7886L121.313 10.5993C120.173 9.19697 118.432 8.50805 116.121 8.50805V8.80805ZM121.08 10.7886C122.154 12.1091 122.702 14.0313 122.702 16.5776H123.002C123.002 13.9935 122.446 11.9934 121.313 10.5993L121.08 10.7886ZM122.702 16.5776V27.4483H123.002V16.5776H122.702ZM122.852 27.2983H119.394V27.5983H122.852V27.2983ZM119.542 27.424L119.211 25.4067L118.915 25.4553L119.246 27.4726L119.542 27.424ZM119.063 25.281H118.953V25.581H119.063V25.281ZM118.855 25.3174C118.055 26.0073 117.2 26.5858 116.292 27.0534L116.429 27.3202C117.359 26.8414 118.233 26.2494 119.051 25.5447L118.855 25.3174ZM116.292 27.0534C115.394 27.5152 114.419 27.7466 113.363 27.7466V28.0466C114.464 28.0466 115.487 27.8047 116.429 27.3202L116.292 27.0534ZM113.363 27.7466C111.802 27.7466 110.549 27.2663 109.588 26.3144L109.377 26.5275C110.402 27.5431 111.735 28.0466 113.363 28.0466V27.7466ZM109.588 26.3144C108.628 25.3633 108.143 24.1029 108.143 22.5172H107.843C107.843 24.1692 108.351 25.5112 109.377 26.5275L109.588 26.3144ZM111.962 22.181C111.962 23.0315 112.211 23.6811 112.737 24.0923L112.922 23.8559C112.492 23.5201 112.262 22.9742 112.262 22.181H111.962ZM112.737 24.0923C113.248 24.4913 113.902 24.6845 114.687 24.6845V24.3845C113.951 24.3845 113.367 24.2042 112.922 23.8559L112.737 24.0923ZM114.687 24.6845C115.447 24.6845 116.147 24.504 116.784 24.1419L116.635 23.8811C116.046 24.2164 115.397 24.3845 114.687 24.3845V24.6845ZM116.784 24.1419C117.411 23.7852 118.058 23.2784 118.727 22.6245L118.517 22.41C117.862 23.0512 117.234 23.5404 116.635 23.8811L116.784 24.1419ZM118.772 22.5172V18.408H118.472V22.5172H118.772ZM118.604 18.2591C117.373 18.4092 116.334 18.6098 115.49 18.862L115.576 19.1495C116.399 18.9036 117.419 18.7057 118.64 18.5569L118.604 18.2591ZM115.49 18.862C114.649 19.1133 113.967 19.398 113.449 19.7187L113.607 19.9738C114.095 19.6719 114.749 19.3963 115.576 19.1495L115.49 18.862ZM113.449 19.7187C112.931 20.0396 112.548 20.4116 112.312 20.8382L112.574 20.9836C112.779 20.6133 113.12 20.2755 113.607 19.9738L113.449 19.7187ZM112.312 20.8382C112.079 21.2586 111.962 21.7069 111.962 22.181H112.262C112.262 21.7586 112.366 21.3602 112.574 20.9836L112.312 20.8382ZM130.134 5.74368C129.406 5.74368 128.818 5.52991 128.36 5.11055L128.157 5.33198C128.679 5.80918 129.342 6.04368 130.134 6.04368V5.74368ZM128.36 5.11055C127.903 4.69334 127.673 4.14972 127.673 3.46552H127.373C127.373 4.22576 127.633 4.85263 128.157 5.33198L128.36 5.11055ZM127.673 3.46552C127.673 2.7813 127.903 2.23055 128.361 1.80041L128.156 1.58177C127.633 2.0731 127.373 2.70528 127.373 3.46552H127.673ZM128.361 1.80041C128.82 1.36926 129.407 1.15 130.134 1.15V0.85C129.341 0.85 128.678 1.09147 128.156 1.58177L128.361 1.80041ZM130.134 1.15C130.861 1.15 131.448 1.36926 131.907 1.80041L132.113 1.58177C131.591 1.09147 130.927 0.85 130.134 0.85V1.15ZM131.907 1.80041C132.365 2.23055 132.595 2.7813 132.595 3.46552H132.895C132.895 2.70528 132.636 2.0731 132.113 1.58177L131.907 1.80041ZM132.595 3.46552C132.595 4.14972 132.365 4.69334 131.909 5.11055L132.111 5.33198C132.635 4.85263 132.895 4.22576 132.895 3.46552H132.595ZM131.909 5.11055C131.45 5.52991 130.863 5.74368 130.134 5.74368V6.04368C130.926 6.04368 131.589 5.80918 132.111 5.33198L131.909 5.11055ZM128.001 9.25632H132.231V8.95632H128.001V9.25632ZM132.081 9.10632V27.4483H132.381V9.10632H132.081ZM132.231 27.2983H128.001V27.5983H132.231V27.2983ZM128.151 27.4483V9.10632H127.851V27.4483H128.151ZM137.637 1.22471H141.867V0.924713H137.637V1.22471ZM141.717 1.07471V22.9655H142.017V1.07471H141.717ZM141.717 22.9655C141.717 23.4987 141.815 23.9149 142.051 24.1695L142.271 23.9656C142.115 23.7968 142.017 23.4784 142.017 22.9655H141.717ZM142.051 24.1695C142.266 24.4019 142.512 24.5351 142.786 24.5351V24.2351C142.619 24.2351 142.448 24.1566 142.271 23.9656L142.051 24.1695ZM142.786 24.5351H143.062V24.2351H142.786V24.5351ZM143.062 24.5351C143.17 24.5351 143.316 24.5049 143.49 24.4544L143.406 24.1663C143.237 24.2155 143.125 24.2351 143.062 24.2351V24.5351ZM143.3 24.3357L143.852 27.5484L144.148 27.4976L143.596 24.285L143.3 24.3357ZM143.939 27.3858C143.402 27.6232 142.677 27.7466 141.756 27.7466V28.0466C142.699 28.0466 143.47 27.9209 144.061 27.6602L143.939 27.3858ZM141.756 27.7466C140.266 27.7466 139.257 27.2963 138.682 26.4313L138.432 26.5975C139.082 27.5753 140.207 28.0466 141.756 28.0466V27.7466ZM138.682 26.4313C138.091 25.5431 137.787 24.3181 137.787 22.7414H137.487C137.487 24.3524 137.797 25.6428 138.432 26.5975L138.682 26.4313ZM137.787 22.7414V1.07471H137.487V22.7414H137.787Z" fill="white"/>
</g>
<path id="Shape" fill-rule="evenodd" clip-rule="evenodd" d="M73.2202 4.10352H99.5569C101.368 4.10352 102.849 5.61645 102.849 7.46558V27.638C102.849 29.4871 101.368 31.0001 99.5569 31.0001H73.2202C71.4095 31.0001 69.9281 29.4871 69.9281 27.638V7.46558C69.9281 5.61645 71.4095 4.10352 73.2202 4.10352ZM94.1473 27.7625H98.5814V14.1803L94.1473 17.1409V27.7625ZM74.1956 27.7625H78.6297V17.1409L74.1956 14.1803V27.7625ZM86.3885 19.9308L94.1473 14.6504L98.5814 11.5831V8.59009C98.5814 8.03781 98.1337 7.59009 97.5814 7.59009H97.0608C96.8599 7.59009 96.6637 7.65057 96.4978 7.76364L86.3885 14.6504L76.2793 7.76364C76.1133 7.65057 75.9171 7.59009 75.7163 7.59009H75.1956C74.6433 7.59009 74.1956 8.03781 74.1956 8.59009V11.6093L78.781 14.6504L86.3885 19.9308Z" fill="#1DD37F"/>
</g>
</svg>
